# xmcd
#
# Track frame offsets:
# 150
# 900
# 1650
# 2400
# 3150
# 3900
# 4650
# 5400
# 6150
# 6900
# 7650
# 8400
# 9150
# 247164
#
# Disc length: 4440 seconds
#
#
# Revision: 0
# Processed by: cddbd v1.4PL0 Copyright (c) Steve Scherf et al.
# Submitted via: FreeRIP 2.51 
#
DISCID=6011560e
DTITLE=Totta Näslund - bortom månen and mars
DYEAR=2002
DGENRE=Blues
TTITLE0=Kärlek med stort K
TTITLE1=Nå'n dag
TTITLE2=Hemma före mörkret
TTITLE3=Johanna and den blå ambulansen
TTITLE4=Du känner inte mig
TTITLE5=Ängel från Montgomery
TTITLE6=Bortom månen and mars
TTITLE7=På väg från himmelen
TTITLE8=Sanningen om oss
TTITLE9=Sex fot under
TTITLE10=En lång väg till ingenting
TTITLE11=Allt ska bort
TTITLE12=Bra dagar
TTITLE13=Bonus track
EXTD=
EXTT0=
EXTT1=
EXTT2=
EXTT3=
EXTT4=
EXTT5=
EXTT6=
EXTT7=
EXTT8=
EXTT9=
EXTT10=
EXTT11=
EXTT12=
EXTT13=
PLAYORDER=
